<svg width="31" height="32" viewBox="0 0 31 32" fill="none" xmlns="http://www.w3.org/2000/svg">
<path fill-rule="evenodd" clip-rule="evenodd" d="M14.2262 1.15023C13.9016 1.51094 13.9839 1.83273 14.4895 2.17992C14.7923 2.38789 14.7866 2.39219 13.9281 2.60094C12.7524 2.8868 11.7689 3.68906 11.3369 4.71477C11.0545 5.38523 11.0233 6.16609 11.259 6.66406C11.4362 7.03852 11.8045 7.44477 12.0662 7.55437C12.1707 7.59812 12.3089 7.74969 12.3733 7.89117C12.4377 8.03266 12.5626 8.25563 12.6507 8.38656L12.8109 8.62477L12.6432 8.93344C12.551 9.10328 12.4459 9.24219 12.4098 9.24219C12.3736 9.24219 11.7418 8.36414 11.0057 7.29102L9.66725 5.33977L9.01391 4.87852C7.83772 4.0482 6.25977 3.30586 5.4691 3.21094C5.1643 3.17438 5.08583 3.19328 4.95934 3.33383C4.77751 3.53586 4.76549 3.89242 4.93283 4.11531C5.00898 4.2168 5.29705 4.3557 5.68869 4.47992C6.3999 4.70547 7.52603 5.27695 8.34446 5.82766C8.88095 6.18859 8.9192 6.23633 10.4389 8.44266L11.9869 10.69L11.3106 11.5286C10.9386 11.9898 10.3442 12.7853 9.98964 13.2964C9.63505 13.8075 9.29748 14.2906 9.23947 14.37C9.14026 14.5056 9.06847 14.4448 8.03403 13.3491C6.94925 12.2 6.9264 12.1812 6.38169 11.9909C4.9033 11.4743 2.9908 11.2674 1.57731 11.4712C1.01291 11.5526 0.844019 11.6693 0.764074 12.0332C0.726175 12.2055 0.758871 12.2923 0.935566 12.4886C1.15121 12.7282 1.15965 12.7304 1.62828 12.6682C2.83956 12.5076 4.46933 12.6591 5.77989 13.0541L6.35181 13.2266L7.40889 14.3462C7.9903 14.9619 8.46603 15.4945 8.46603 15.5298C8.46603 15.5649 8.21664 16.028 7.91183 16.5586C5.86848 20.1159 4.52748 23.451 4.14934 25.9161C4.01223 26.8099 4.0033 28.3164 4.1319 28.8516C4.41266 30.0192 5.15678 30.7962 6.19923 31.0104C6.66519 31.1061 7.27881 31.0002 7.726 30.7468C8.49374 30.3118 10.2779 28.6859 11.5604 27.2525L12.5807 26.1123L12.8469 26.4888C13.2064 26.9975 13.9363 27.5786 14.4868 27.7945C14.864 27.9425 15.043 27.9665 15.5635 27.9388C16.4331 27.8927 17.0199 27.5704 17.7429 26.742L18.262 26.147L19.2878 27.2788C20.8654 29.0193 22.5745 30.5419 23.302 30.8548C24.1596 31.2237 25.2149 31.0091 25.898 30.3266C27.8222 28.4044 26.6124 22.9352 22.8238 16.4297L22.3689 15.6484L23.521 14.4209L24.6731 13.1933L25.4113 12.998C25.8174 12.8907 26.3711 12.7635 26.6418 12.7154C27.2438 12.6084 28.7223 12.5828 29.3663 12.6682C29.8349 12.7304 29.8434 12.7282 30.059 12.4886C30.2357 12.2923 30.2684 12.2055 30.2305 12.0332C30.1505 11.6693 29.9817 11.5526 29.4173 11.4712C28.0003 11.267 26.2001 11.4602 24.6503 11.983L24.065 12.1804L22.9423 13.3676C22.3247 14.0205 21.7919 14.5654 21.7582 14.5785C21.7244 14.5916 21.5949 14.4376 21.4702 14.2362C21.1073 13.6503 19.9202 12.0256 19.4108 11.418C19.1533 11.1109 18.9426 10.843 18.9426 10.8228C18.9426 10.8026 19.6402 9.77273 20.4928 8.53422C21.8727 6.52977 22.0943 6.24422 22.5101 5.9343C23.1803 5.43469 24.5688 4.71203 25.3059 4.47914C25.6984 4.35516 25.9854 4.21695 26.0617 4.11531C26.2291 3.89242 26.2171 3.53586 26.0352 3.33383C25.9087 3.19328 25.8303 3.17438 25.5255 3.21094C24.7367 3.30563 23.21 4.02406 21.9836 4.87766L21.3332 5.33031L19.9247 7.38391C19.1501 8.51336 18.5041 9.4375 18.4894 9.4375C18.4746 9.4375 18.3646 9.26078 18.245 9.04484L18.0276 8.65219L18.2917 8.15234C18.488 7.78094 18.6245 7.61734 18.823 7.51578C19.6966 7.06875 19.9765 5.73477 19.434 4.60398C19.1395 3.99016 18.4831 3.30352 17.8797 2.97813C17.3965 2.71758 16.6918 2.48438 16.3878 2.48438C16.1053 2.48438 16.0992 2.34305 16.3739 2.16305C16.7818 1.89563 16.8835 1.49523 16.6314 1.1493C16.4366 0.882031 16.0852 0.908203 15.7057 1.21836C15.4018 1.46664 15.3994 1.46719 15.2544 1.31586C15.107 1.16195 14.6532 0.921875 14.5097 0.921875C14.4669 0.921875 14.3393 1.02461 14.2262 1.15023Z" fill="black"/>
</svg>
